<svg xmlns="http://www.w3.org/2000/svg" width="1200" height="320" viewBox="0 0 1200 320" role="img" aria-labelledby="title desc">
  <title id="title">试界 TryWorld — 尝试，即世界。</title>
  <desc id="desc">TryWorld brand banner: the connected tw signature, the line “尝试，即世界”, an orbital mark, and Explore by Trying.</desc>
  <rect width="1200" height="320" rx="14" fill="#1B2523"/>
  <rect x="1" y="1" width="1198" height="318" rx="13" fill="none" stroke="#33403C"/>
  <g transform="translate(48 34) scale(0.24)" fill="none" stroke="#F2EEE6" stroke-width="16" stroke-linecap="round" stroke-linejoin="round">
    <path d="M49 17C43 34 39 56 42 73C44 88 54 98 67 99M17 40C35 34 52 28 66 35C83 44 77 82 92 86C101 89 110 64 117 63C123 64 126 85 139 86C154 88 169 55 174 43"/>
  </g>
  <text x="112" y="58" font-family="'PingFang SC','Microsoft YaHei','Hiragino Sans GB','Source Han Sans SC','Noto Sans SC',sans-serif" font-size="23" font-weight="700" fill="#F2EEE6" letter-spacing="0.4">TryWorld<tspan dx="9" font-size="14" font-weight="500" fill="#9CC7BB">试界</tspan></text>
  <path d="M266 34v28" stroke="#39443F"/>
  <text x="288" y="54" font-family="'PingFang SC','Microsoft YaHei','Hiragino Sans GB','Source Han Sans SC','Noto Sans SC',sans-serif" font-size="13.5" fill="#A8B0AA">用尝试，打开更多可能。</text>
  <path d="M48 88h1104" stroke="#39443F"/>
  <path d="M672 116v172" stroke="#2A3634"/>
  <text x="48" y="142" font-family="'PingFang SC','Microsoft YaHei','Hiragino Sans GB','Source Han Sans SC','Noto Sans SC',sans-serif" font-size="12.5" fill="#9CC7BB" letter-spacing="2.6">来自宁夏的创作者</text>
  <text x="46" y="216" font-family="'PingFang SC','Microsoft YaHei','Hiragino Sans GB','Source Han Sans SC','Noto Sans SC',sans-serif" font-size="64" font-weight="800" letter-spacing="1"><tspan fill="#F2EEE6">尝试</tspan><tspan fill="#F2693C">，</tspan><tspan fill="#9CC7BB">即世界</tspan><tspan fill="#9CC7BB">。</tspan></text>
  <text x="48" y="256" font-family="'PingFang SC','Microsoft YaHei','Hiragino Sans GB','Source Han Sans SC','Noto Sans SC',sans-serif" font-size="17" fill="#A8B0AA">用 AI、代码和好奇心，把想法做成可以使用的东西。</text>
  <text x="48" y="292" font-family="Georgia,'Times New Roman','Songti SC',serif" font-size="21" font-style="italic" fill="#9CC7BB">Explore by Trying.</text>
  <text x="712" y="142" font-family="'PingFang SC','Microsoft YaHei','Hiragino Sans GB','Source Han Sans SC','Noto Sans SC',sans-serif" font-size="11.5" fill="#A8B0AA" letter-spacing="2.4">TRY / MAKE / SHARE</text>
  <text x="1152" y="142" text-anchor="end" font-family="'PingFang SC','Microsoft YaHei','Hiragino Sans GB','Source Han Sans SC','Noto Sans SC',sans-serif" font-size="12.5" fill="#A8B0AA">试着打开，新的边界。</text>
  <g fill="none">
    <ellipse cx="930" cy="218" rx="170" ry="92" transform="rotate(-16 930 218)" stroke="#9CC7BB" stroke-width="1.4" opacity="0.4"/>
    <ellipse cx="930" cy="218" rx="170" ry="92" transform="rotate(13 930 218)" stroke="#9CC7BB" stroke-width="1.4" opacity="0.22"/>
    <ellipse cx="930" cy="218" rx="170" ry="92" stroke="#9CC7BB" stroke-width="1.4" opacity="0.14"/>
    <ellipse cx="930" cy="218" rx="170" ry="92" transform="rotate(-16 930 218)" stroke="#F2EEE6" stroke-width="1.6" opacity="0.55" stroke-dasharray="540 400"/>
  </g>
  <circle cx="1093" cy="171" r="5" fill="#F2693C"/>
  <circle cx="790" cy="290" r="4" fill="#9CC7BB" opacity="0.85"/>
  <text x="930" y="236" text-anchor="middle" font-family="Georgia,'Times New Roman','Songti SC',serif" font-size="58" font-style="italic" fill="#F2EEE6">make<tspan fill="#F2693C">.</tspan></text>
  <text x="930" y="272" text-anchor="middle" font-family="'PingFang SC','Microsoft YaHei','Hiragino Sans GB','Source Han Sans SC','Noto Sans SC',sans-serif" font-size="14" font-weight="600" fill="#F2EEE6" letter-spacing="1.2">试界 TryWorld</text>
  <text x="930" y="294" text-anchor="middle" font-family="'PingFang SC','Microsoft YaHei','Hiragino Sans GB','Source Han Sans SC','Noto Sans SC',sans-serif" font-size="12" fill="#A8B0AA">从一个问题，做到一个产品。</text>
</svg>
